<?xml version="1.0" encoding="UTF-8"?>
<svg width="805px" height="594px" viewBox="0 0 805 594" version="1.1" xmlns="http://www.w3.org/2000/svg" xmlns:xlink="http://www.w3.org/1999/xlink">
    <title>Mark</title>
    <defs>
        <linearGradient x1="-17.120921%" y1="106.418831%" x2="84.7484132%" y2="21.1561869%" id="linearGradient-1">
            <stop stop-color="#793BFF" offset="0%"></stop>
            <stop stop-color="#440AC0" offset="21.1436952%"></stop>
            <stop stop-color="#5462FF" offset="47.7734551%"></stop>
            <stop stop-color="#40BAD5" offset="100%"></stop>
        </linearGradient>
        <linearGradient x1="-16.6283352%" y1="-87.7121377%" x2="107.392088%" y2="104.857543%" id="linearGradient-2">
            <stop stop-color="#440AC0" offset="0%"></stop>
            <stop stop-color="#793BFF" offset="22.9840472%"></stop>
            <stop stop-color="#5462FF" offset="55.2638767%"></stop>
            <stop stop-color="#40BAD5" offset="100%"></stop>
        </linearGradient>
    </defs>
    <g id="Page-1" stroke="none" stroke-width="1" fill="none" fill-rule="evenodd">
        <g id="Group-3" transform="translate(-558.000000, -127.000000)">
            <g id="Logo" transform="translate(62.000000, 127.000000)">
                <g id="Mark" transform="translate(496.000000, 0.000000)">
                    <g id="Group">
                        <path d="M242.5,0 C221.237037,0 204,17.2370371 204,38.5 C204,59.5503332 220.89402,76.6548567 241.863332,76.9948421 L242.5,77 L331.5,77 L332.252251,76.9927976 L333.000997,76.9712776 L333,77 L406.5,77 C427.762963,77 445,94.2370371 445,115.5 C445,136.762963 427.762963,154 406.5,154 L333,154 L333.000997,154.028722 L332.252251,154.007202 L331.5,154 L167.5,154 C146.237037,154 129,171.237037 129,192.5 C129,213.550333 145.89402,230.654857 166.863332,230.994842 L167.5,231 L331.5,231 L332.252251,230.992798 L333.000997,230.971278 L333,231 L467.5,231 C488.762963,231 506,248.237037 506,269.5 C506,290.762963 488.762963,308 467.5,308 L333,308 L333.000997,308.028722 L332.252251,308.007202 L331.5,308 L304.5,308 C283.237037,308 266,325.237037 266,346.5 C266,367.550333 282.89402,384.654857 303.863332,384.994842 L304.5,385 L331.5,385 L332.252251,384.992798 L333.000997,384.971278 L333,385 L361.5,385 C382.762963,385 400,402.237037 400,423.5 C400,444.762963 382.762963,462 361.5,462 L333,462 L333.000298,462.050411 C332.558604,462.028096 332.114973,462.013129 331.669523,462.005631 L331,462 L238,462 C216.460895,462 199,479.460895 199,501 C199,522.323714 216.113423,539.650374 237.355064,540 L238,540 L113,540 C85.3857625,540 63,517.614237 63,490 L63,50 C63,22.3857625 85.3857625,0 113,0 L242.5,0 Z" id="Path" fill="#120136"></path>
                        <path d="M331.5,0 C332.00264,0 332.503031,0.00963229235 333.000997,0.0287223592 L333,0.00801455126 L336.481481,0.036187907 C338.618227,0.0707051697 340.748961,0.129861699 342.87341,0.21338476 L345.160958,0.312840965 L346.584139,0.384339156 L347.495,0.435 L349.424664,0.54916747 L350.846255,0.64275391 L351.77,0.708 L354.014,0.878 L355.111272,0.968110974 L356.537048,1.09184051 L356.537048,1.09184051 L357.960706,1.22289391 L359.374356,1.36046541 L360.237,1.449 L362.195241,1.65720586 L363.609853,1.81719556 L366.432424,2.15883015 L368.49905,2.42796986 L369.719038,2.59441961 L370.727,2.736 L372.39,2.979 L373.381633,3.12803642 L374.788509,3.34658922 L376.623327,3.64300058 L378.014121,3.8762916 L378.928203,4.03367544 L380.316536,4.27888531 L381.133,4.427 L383.043,4.782 L384.886563,5.13889846 C385.812136,5.32132589 386.736014,5.50844922 387.658172,5.70024248 L389.040115,5.99143157 L391.201807,6.46208342 C392.126797,6.66744598 393.050006,6.87751915 393.971405,7.09227636 L395.352144,7.41792187 L397.092596,7.83934158 L398.462533,8.17966352 L399.408,8.419 L401.154,8.871 L402.081384,9.11541559 L403.440933,9.48083205 L404.840743,9.86503737 L407.398,10.589 L409.311,11.147 L411.090702,11.6800688 C411.757178,11.8823717 412.422564,12.0871648 413.08685,12.2944372 L415.047433,12.9143995 L417.001558,13.5487491 C418.898915,14.1726732 420.787003,14.8169175 422.665561,15.4812224 L424.693869,16.2076138 L426.409889,16.8365029 L428.231113,17.5184353 L430.498368,18.3884034 L431.382911,18.7341824 L432.408096,19.1394426 L434.046146,19.7970594 L435.959335,20.5809598 L437.865166,21.3789491 L439.94316,22.2686679 L441.619079,23.0013054 L443.47173,23.8270155 L445.317013,24.666106 L447.389879,25.6287267 L449.045884,26.4131571 L450.988903,27.351168 L452.73876,28.2123836 L454.64824,29.1701535 L456.352279,30.0409061 L458.250651,31.0289688 L459.958015,31.9340099 L461.820503,32.9391956 L463.496044,33.8596476 L465.395868,34.9220552 L467.021011,35.8468601 L468.934151,36.9547064 L470.501468,37.8779228 L472.240961,38.9192512 L473.971958,39.9731496 L475.872296,41.1507141 L477.447,42.144 L479.414315,43.4041148 L480.997,44.437 L482.669,45.545 L484.251,46.609 L486.035,47.828 L487.478549,48.8297477 C489.024337,49.9104276 490.558219,51.0067395 492.079999,52.1184778 L493.957094,53.5021768 L495.27,54.486 L496.931,55.747 L498.523,56.974 L500.241,58.321 L501.938408,59.6717129 L503.49773,60.9334055 L504.915976,62.0976036 L506.552424,63.4609885 L507.989981,64.6767309 L509.667723,66.117376 L511.018746,67.2948428 L512.640126,68.7287982 L514.077548,70.0194604 L515.631834,71.4359971 L516.996469,72.6979868 L518.524104,74.1314321 L519.982465,75.520718 L521.457784,76.9473259 L522.80138,78.2654817 L524.278733,79.7361377 L525.676252,81.148287 L527.143175,82.6530042 L528.437471,84.0001651 L529.983492,85.633896 L531.155705,86.8908461 L532.529309,88.3842391 L533.891787,89.8878957 L535.373302,91.5488565 L536.563976,92.9038286 L538.042407,94.6118385 L539.176177,95.9413458 L540.666729,97.7159465 L541.763533,99.0416494 L543.031436,100.595745 L544.288047,102.159444 C545.683644,103.909295 547.057945,105.676848 548.410527,107.461675 L549.553,108.983 L549.914,109.468 L551.584392,111.736378 L552.588,113.128 L553.856,114.909 L554.880451,116.369463 L556.215906,118.306911 L557.212367,119.776425 L558.449598,121.630413 L559.472316,123.188367 L560.644355,125.003099 L561.601794,126.509581 L562.807232,128.43815 L563.72324,129.928256 L564.879025,131.839907 L565.857811,133.487302 L566.958787,135.372858 L567.877381,136.973421 L568.87707,138.74471 L569.863743,140.524215 L570.882826,142.396194 L571.778814,144.071832 L572.806973,146.030523 L573.635782,147.638555 L574.632003,149.607383 L575.48227,151.320237 L576.427148,153.260475 L577.216851,154.913166 L578.184277,156.978333 L578.948025,158.641779 L579.843383,160.630987 L580.602196,162.351551 L581.483451,164.39192 L582.041344,165.708191 L582.592442,167.028002 L583.07,168.191 L583.732081,169.822362 C584.666253,172.150382 585.568766,174.494197 586.439154,176.853431 L586.931,178.202 L587.155,178.823 L588.04003,181.314059 L588.966262,184.014972 L589.366759,185.212831 L589.926,186.921 L590.31053,188.11323 L590.616219,189.077526 L591.170596,190.859571 L591.818972,193.001655 L592.342398,194.779939 L592.9694,196.972608 L593.443895,198.680874 L594.058204,200.960755 L594.535703,202.790737 L595.078457,204.938212 L595.5326,206.795318 L596.046571,208.970031 L596.478415,210.863178 L596.952627,213.019048 L597.36133,214.948824 L597.799695,217.101226 L598.06982,218.474665 L598.249,219.416 L598.58912,221.228957 C598.757495,222.148375 598.921196,223.069419 599.080197,223.992063 L599.315173,225.377225 L599.618442,227.233856 C599.766061,228.157928 599.908974,229.083562 600.047157,230.010733 L600.250879,231.402641 L600.446669,232.790926 L600.606,233.969 L600.752375,235.072055 L600.942868,236.574283 L601.12509,238.079064 L601.286504,239.475383 L601.587903,242.274457 L601.758373,243.99332 C601.848167,244.929179 601.933167,245.866431 602.013347,246.805054 L602.130006,248.214089 C602.706308,255.402974 603,262.671315 603,270.008 C603,275.455358 602.838094,280.86504 602.518814,286.232528 L602.391702,288.243555 C602.266554,290.113302 602.122296,291.977913 601.959122,293.837152 L601.764217,295.961693 L601.607612,297.548396 L601.324711,300.200438 L601.117976,301.997037 L600.943863,303.433687 L600.831946,304.324645 C600.713413,305.255722 600.590121,306.18532 600.462095,307.113414 L600.266509,308.504423 L600.062834,309.899929 L599.954,310.616 L599.634106,312.683973 C599.487343,313.604878 599.335907,314.524232 599.179822,315.44201 L598.942213,316.817493 C598.779423,317.745456 598.611878,318.67179 598.439603,319.596469 L598.177646,320.982243 L597.834466,322.740084 C597.648827,323.67434 597.458351,324.606862 597.263064,325.537623 L596.96653,326.932442 L596.506415,329.027836 C596.299837,329.950925 596.088516,330.872232 595.872478,331.79173 L595.544887,333.169617 L595.213202,334.532742 L595.078,335.076 L594.561,337.122 L594.086465,338.948399 L593.723307,340.308074 L593.505218,341.111084 L592.976278,343.01894 L592.385218,345.088525 C592.116035,346.016891 591.841986,346.9432 591.563101,347.867423 L591.141148,349.252189 L590.725324,350.591187 L589.873375,353.260225 C589.572495,354.186054 589.266732,355.109693 588.956116,356.031112 L588.813,356.45 L589.384125,354.750798 L588.585,357.117 L588.091082,358.555468 C587.244412,360.986634 586.363586,363.402686 585.449361,365.802517 L585.269546,366.273172 L584.525859,368.192209 L584.239611,368.919403 L583.767958,370.104155 L583.005401,371.985777 L582.229099,373.860353 L581.531,375.509 L581.048421,376.637119 L580.623951,377.614605 L579.807953,379.464525 L578.978506,381.307175 L578.184536,383.037107 L577.286028,384.956631 L576.501296,386.601576 L575.50925,388.640868 L574.669412,390.333896 L573.686045,392.279023 L572.839728,393.922428 L571.821232,395.864083 L570.936179,397.520821 L569.887922,399.447728 L569.012101,401.02962 L567.912568,402.98071 L566.978462,404.609126 L565.921776,406.42005 L564.861039,408.20606 L563.786961,409.983218 L562.847558,411.512705 L561.700021,413.35055 L560.705839,414.916817 L559.454156,416.855437 L558.341164,418.549339 L557.215808,420.234396 L556.082352,421.904407 L554.93675,423.565509 L554.101411,424.760249 L552.53,426.968 L551.638465,428.205174 C550.172906,430.221617 548.679941,432.217188 547.160202,434.191264 L545.854,435.871 L544.3845,437.735459 L543.178102,439.238963 L541.800762,440.928957 L540.530451,442.463486 L539.41291,443.794854 L538.093303,445.344848 L536.614964,447.053639 L535.395403,448.442158 L533.983405,450.026072 L532.754985,451.384255 L531.21645,453.059469 L530.035281,454.326907 L528.53081,455.917847 L527.186766,457.317925 L525.744659,458.797937 L524.41056,460.147533 L522.873344,461.679274 L521.556258,462.972682 L520.036699,464.443087 L518.630658,465.783755 L517.092701,467.228228 L515.730268,468.489549 L514.125,469.953475 L512.715802,471.219711 L511.163753,472.593698 L509.723685,473.850161 L508.091169,475.252898 L506.631366,476.488692 L505.020291,477.831976 L503.554769,479.036081 L502.821041,479.632298 L501.714199,480.52398 L500.282,481.662 L498.267,483.238 L497.575,483.773 L496.465884,484.62505 L494.880781,485.823749 C493.993324,486.489575 493.101638,487.150162 492.205764,487.805417 L490.858818,488.784289 L489.381809,489.843483 L487.563851,491.126406 L486.016647,492.201173 L484.253541,493.406278 L482.757687,494.413232 L480.853858,495.673669 L479.380725,496.633618 L477.668728,497.732032 L475.774458,498.926237 L474.228154,499.885358 L472.499803,500.940281 L470.602191,502.078047 L468.995934,503.025169 L467.137111,504.102283 L465.408968,505.086549 L463.649304,506.071165 L461.890399,507.038714 L460.073045,508.020222 L458.331954,508.944288 L456.460203,509.919196 L454.742917,510.797866 L452.81851,511.763751 L451.104923,512.608216 L449.106783,513.573486 L447.486492,514.341886 L445.432842,515.296413 L443.724506,516.075029 L441.829236,516.92161 L439.99012,517.726987 L438.038213,518.563481 L436.262816,519.309117 L434.208268,520.152909 L432.471453,520.851353 L431.408273,521.271578 L430.92,521.461 L431.994,521.038 L430.002528,521.819584 C429.101399,522.167974 428.197936,522.5117 427.292167,522.850733 L425.932214,523.355882 L424.290814,523.953989 L423.028,524.404 L420.993728,525.119523 L419.063558,525.779674 L419.535583,525.620026 C418.594795,525.939761 417.651678,526.254485 416.706265,526.564166 L415.286427,527.024901 L413.223175,527.678692 L411.390291,528.244804 L409.240081,528.890138 L407.476344,529.405502 L405.265082,530.032589 L403.447585,530.533362 L402.079628,530.901051 L401.317264,531.10232 L399.335196,531.615575 L397.290933,532.127546 L395.34678,532.599358 L393.238576,533.093137 L391.316867,533.528345 L389.137445,534.003456 L387.086315,534.433728 L385.029521,534.848562 L383.147604,535.213935 C382.212928,535.391808 381.276549,535.564897 380.338492,535.733177 L378.930152,535.981985 L376.89659,536.32742 L375.510296,536.554016 L374.83276,536.662414 C373.903705,536.809394 372.973077,536.951669 372.040902,537.089216 L370.641483,537.291985 L368.564782,537.57887 L366.469512,537.852482 L365.066388,538.026244 L364.032,538.148 L362.253531,538.352349 C361.321335,538.455517 360.387712,538.553974 359.452686,538.647695 L358.0491,538.784721 C357.104921,538.874438 356.159329,538.959327 355.21235,539.039365 L353.790842,539.155779 L352.374939,539.26433 L351.769,539.307 L349.912,539.433 L348.941697,539.496597 L347.479946,539.582865 L345.349837,539.69375 L342.942912,539.799874 C340.795433,539.884845 338.641529,539.944918 336.481481,539.979812 L333,540.007015 L333.000298,539.949589 C332.337758,539.983062 331.670857,540 331,540 L238,540 L237.355064,539.994775 C236.786128,539.985551 236.220153,539.964143 235.657389,539.930803 L234.815683,539.871873 L234.248716,539.821916 L234.025265,539.799944 C233.560313,539.752883 233.097668,539.697638 232.637549,539.634363 L231.94929,539.533446 L231.328563,539.431614 L230.74716,539.326839 L230.483402,539.276288 L229.898684,539.157449 L229.270352,539.019249 L228.73609,538.893092 L228.542538,538.845409 L227.941948,538.69069 L227.345133,538.526713 L226.871336,538.389183 L226.301379,538.215004 L225.5436,537.968429 L224.946451,537.761855 L224.216899,537.494514 L223.815788,537.340397 L223.236108,537.108569 L222.904753,536.971151 L222.33645,536.727025 L221.805244,536.489028 L221.578822,536.384657 L220.998223,536.108891 L220.422732,535.823786 L220.017993,535.616108 L219.469871,535.325213 L218.81813,534.964531 L218.307938,534.67066 L218.050888,534.518676 L217.515076,534.193224 L217.072037,533.915101 L216.75899,533.71354 L216.257767,533.381911 L215.835897,533.094073 L215.287051,532.707313 L214.919113,532.440026 L214.331103,531.999061 L213.689068,531.497432 L213.191284,531.093392 L212.699082,530.680334 L212.2916,530.327777 L211.855737,529.939622 L211.419922,529.539646 L210.986838,529.129931 L210.544748,528.698545 L210.109331,528.260078 L209.713908,527.849645 L209.306376,527.413861 L208.874414,526.937071 L208.495075,526.505068 L208.2688,526.241184 L207.756742,525.626015 L207.359601,525.130737 L207.006438,524.676088 L206.640599,524.19013 L206.315862,523.745209 L205.966929,523.25201 L205.610737,522.731302 L205.262724,522.204484 L204.90265,521.639142 L204.609832,521.163007 L204.336491,520.704258 L204.151721,520.385832 L203.884057,519.911848 L203.593906,519.379832 L203.311599,518.842436 L203.017649,518.260157 L202.776788,517.764083 L202.538611,517.255089 L202.418485,516.990854 L202.131884,516.338163 L201.92585,515.847706 L201.815545,515.577104 L201.587341,514.997792 L201.368231,514.414209 L201.1678,513.853719 L200.975676,513.289192 L200.786937,512.7048 C200.622496,512.181484 200.468773,511.65335 200.32604,511.120698 L200.106473,510.262124 L200.064953,510.089954 C199.98531,509.756339 199.910048,509.421503 199.839122,509.085069 L199.731185,508.554774 C199.632463,508.051825 199.543408,507.54541 199.464223,507.035731 L199.42694,506.790612 L199.391172,506.544939 C199.331208,506.123656 199.277983,505.700263 199.2316,505.274814 L199.18202,504.792296 L199.129284,504.198606 L199.090812,503.682537 C199.030611,502.796538 199,501.901844 199,501 C199,479.676286 216.113423,462.349626 237.355064,462.005225 L238,462 L331,462 C331.670857,462 332.337758,462.016938 333.000298,462.050411 L333,462 L361.5,462 C382.762963,462 400,444.762963 400,423.5 C400,402.449667 383.10598,385.345143 362.136668,385.005158 L361.5,385 L333,385 L333.000997,384.971278 L332.252251,384.992798 L331.5,385 L304.5,385 L303.863332,384.994842 C303.580834,384.990262 303.299075,384.982639 303.018087,384.972005 C302.709186,384.960313 302.4013,384.944988 302.094387,384.926066 L301.35737,384.873586 L301.035848,384.846263 L300.344944,384.778395 L299.840001,384.720844 L299.243662,384.64417 L298.649972,384.558399 L298.073014,384.465951 L297.670512,384.396106 L297.067357,384.283141 L296.493514,384.166342 L295.871946,384.02946 L295.31098,383.896566 L294.709386,383.74406 L294.135452,383.588814 L293.6981,383.464042 L292.934467,383.232579 L292.390966,383.057145 L291.799128,382.855822 L291.224316,382.64986 L290.706024,382.455191 L290.129711,382.228583 L289.557535,381.992835 L289.039457,381.769949 L288.486878,381.522149 L287.766672,381.18322 L287.433888,381.020381 L286.876469,380.738602 L286.383192,380.479636 L285.657929,380.082047 L285.037909,379.725793 L284.53785,379.427137 L284.07325,379.140339 L283.537075,378.797886 L283.080031,378.495992 L282.630706,378.189979 L282.142513,377.84683 L281.659916,377.496351 L281.202043,377.153132 L280.702274,376.766204 L280.29503,376.441085 L279.976124,376.180131 L279.53315,375.808088 L279.083982,375.419091 L278.659814,375.040451 L278.208518,374.62505 L277.801686,374.239023 L277.365409,373.812343 L277.00079,373.445211 L276.391524,372.809193 L275.97721,372.359668 L275.566707,371.899863 L275.402765,371.712046 L274.99499,371.234061 L274.482149,370.609824 L274.088852,370.112483 L273.719771,369.630045 L273.390441,369.185908 L273.044221,368.704218 L272.68619,368.189107 L272.513443,367.934027 L272.183085,367.433637 L271.835882,366.888784 L271.405511,366.184062 L271.113357,365.685449 L270.818272,365.163683 L270.531019,364.636737 L270.376597,364.345112 L270.124372,363.855278 L269.832244,363.265283 L269.625278,362.831181 L269.464904,362.484821 L269.238034,361.978715 L269.007973,361.44438 L268.918799,361.231058 C268.752425,360.829642 268.592673,360.42488 268.439658,360.016856 L268.215203,359.402383 L268.04353,358.90896 L267.948301,358.625471 L267.759823,358.041354 L267.580307,357.452762 L267.416272,356.882768 C267.335888,356.595052 267.258868,356.306389 267.185139,356.016411 C267.009107,355.324028 266.851959,354.624763 266.714113,353.918592 C266.66424,353.663106 266.616828,353.406343 266.571977,353.148701 C266.510158,352.793589 266.4532,352.436775 266.40118,352.078362 L266.324187,351.519049 C266.256902,351.002232 266.199867,350.482195 266.153291,349.959148 C266.051815,348.81947 266,347.665786 266,346.5 C266,325.449667 282.89402,308.345143 303.863332,308.005158 L304.5,308 L331.5,308 C332.00264,308 332.503031,308.009632 333.000997,308.028722 L333,308 L467.5,308 C488.762963,308 506,290.762963 506,269.5 C506,248.449667 489.10598,231.345143 468.136668,231.005158 L467.5,231 L333,231 L333.000997,230.971278 L332.252251,230.992798 L331.5,231 L167.5,231 L166.863332,230.994842 C166.580834,230.990262 166.299075,230.982639 166.018087,230.972005 C165.709186,230.960313 165.4013,230.944988 165.094387,230.926066 L164.35737,230.873586 L164.035848,230.846263 L163.344944,230.778395 L162.840001,230.720844 L162.243662,230.64417 L161.649972,230.558399 L161.073014,230.465951 L160.670512,230.396106 L160.067357,230.283141 L159.493514,230.166342 L158.871946,230.02946 L158.31098,229.896566 L157.709386,229.74406 L157.135452,229.588814 L156.6981,229.464042 L155.934467,229.232579 L155.390966,229.057145 L154.799128,228.855822 L154.224316,228.64986 L153.706024,228.455191 L153.129711,228.228583 L152.557535,227.992835 L152.039457,227.769949 L151.486878,227.522149 L150.766672,227.18322 L150.433888,227.020381 L149.876469,226.738602 L149.383192,226.479636 L148.657929,226.082047 L148.037909,225.725793 L147.53785,225.427137 L147.07325,225.140339 L146.537075,224.797886 L146.080031,224.495992 L145.630706,224.189979 L145.085544,223.806047 L144.659916,223.496351 L144.202043,223.153132 L143.702274,222.766204 L143.262906,222.415054 L142.782988,222.019308 L142.330059,221.633697 L141.900188,221.256398 L141.659814,221.040451 L141.208518,220.62505 L140.801686,220.239023 L140.365409,219.812343 L140.00079,219.445211 L139.391524,218.809193 L138.97721,218.359668 L138.566707,217.899863 L138.402765,217.712046 L137.99499,217.234061 L137.482149,216.609824 L137.088852,216.112483 L136.719771,215.630045 L136.390441,215.185908 L136.044221,214.704218 L135.68619,214.189107 L135.513443,213.934027 L135.183085,213.433637 L134.835882,212.888784 L134.405511,212.184062 L134.113357,211.685449 L133.818272,211.163683 L133.531019,210.636737 L133.376597,210.345112 L133.124372,209.855278 L132.832244,209.265283 L132.625278,208.831181 L132.465815,208.486816 L132.238034,207.978715 L132.054887,207.555176 L131.918799,207.231058 C131.752425,206.829642 131.592673,206.42488 131.439658,206.016856 L131.215203,205.402383 L131.04353,204.90896 L130.948301,204.625471 L130.759823,204.041354 L130.580307,203.452762 L130.416272,202.882768 C130.335888,202.595052 130.258868,202.306389 130.185139,202.016411 C130.009107,201.324028 129.851959,200.624763 129.714113,199.918592 C129.66424,199.663106 129.616828,199.406343 129.571977,199.148701 C129.510158,198.793589 129.4532,198.436775 129.40118,198.078362 L129.324187,197.519049 C129.248577,196.938289 129.18591,196.353463 129.136484,195.76487 C129.046098,194.68843 129,193.599598 129,192.5 C129,171.449667 145.89402,154.345143 166.863332,154.005158 L167.5,154 L331.5,154 C332.00264,154 332.503031,154.009632 333.000997,154.028722 L333,154 L406.5,154 C427.762963,154 445,136.762963 445,115.5 C445,94.4496668 428.10598,77.3451433 407.136668,77.0051579 L406.5,77 L333,77 L333.000997,76.9712776 L332.252251,76.9927976 L331.5,77 L242.5,77 L241.863332,76.9948421 C241.580834,76.9902618 241.299075,76.9826389 241.018087,76.9720046 C240.709186,76.9603132 240.4013,76.9449877 240.094387,76.9260664 L239.35737,76.8735857 L239.035848,76.8462631 L238.344944,76.7783945 L237.840001,76.7208443 L237.243662,76.6441703 L236.649972,76.5583992 L236.073014,76.4659506 L235.670512,76.3961056 L235.067357,76.283141 L234.493514,76.1663418 L233.871946,76.0294604 L233.31098,75.8965657 L232.709386,75.74406 L232.135452,75.5888142 L231.6981,75.4640421 L230.934467,75.2325791 L230.390966,75.0571446 L229.620022,74.7927562 L228.965021,74.5535402 L228.706024,74.4551908 L228.129711,74.2285828 L227.557535,73.9928349 L227.039457,73.769949 L226.486878,73.5221492 L225.766672,73.1832198 L225.433888,73.0203807 L224.876469,72.7386022 L224.383192,72.4796364 L223.657929,72.0820467 L223.037909,71.7257927 L222.53785,71.4271372 L222.07325,71.1403395 L221.537075,70.7978857 L221.080031,70.4959917 L220.630706,70.1899792 L220.085544,69.8060467 L219.659916,69.496351 L219.202043,69.1531318 L218.702274,68.766204 L218.29503,68.4410854 L217.976124,68.180131 L217.53315,67.8080884 L217.083982,67.4190911 L216.659814,67.0404513 L216.208518,66.6250498 L215.801686,66.2390231 L215.365409,65.8123431 L215.00079,65.4452113 L214.391524,64.8091929 L213.97721,64.3596678 L213.566707,63.8998629 L213.402765,63.7120463 L212.99499,63.2340609 L212.482149,62.6098235 L212.088852,62.1124828 L211.719771,61.630045 L211.388261,61.1829233 L211.044221,60.7042175 L210.68619,60.1891071 L210.513443,59.9340272 L210.183085,59.4336374 L209.835882,58.8887845 L209.405511,58.1840618 L209.113357,57.6854491 L208.818272,57.1636835 L208.531019,56.6367374 L208.231975,56.0663668 L207.993005,55.5931089 L207.728103,55.0486056 L207.465815,54.4868163 L207.238034,53.978715 L207.007973,53.4443805 L206.918799,53.2310579 C206.752425,52.829642 206.592673,52.4248799 206.439658,52.0168555 L206.215203,51.4023826 L206.04353,50.9089603 L205.948301,50.6254706 L205.759823,50.041354 L205.580307,49.4527616 L205.495735,49.1630486 L205.41347,48.8727363 C205.334109,48.5883801 205.258016,48.3030376 205.185139,48.0164114 C205.007526,47.3178093 204.849135,46.6121904 204.710401,45.899546 C204.661896,45.6504067 204.615718,45.399972 204.571977,45.148701 C204.475939,44.5970239 204.391641,44.0412839 204.319353,43.4817785 C204.251183,42.9540707 204.193751,42.423635 204.147203,41.8900808 C204.049743,40.7728718 204,39.642245 204,38.5 C204,17.4496668 220.89402,0.345143335 241.863332,0 L331.5,0 Z M147.5,308 C168.762963,308 186,325.237037 186,346.5 C186,367.762963 168.762963,385 147.5,385 L66.5,385 C45.2370371,385 28,367.762963 28,346.5 C28,325.237037 45.2370371,308 66.5,308 L147.5,308 Z M41.5,154 C62.7629629,154 80,171.237037 80,192.5 C80,213.762963 62.7629629,231 41.5,231 L38.5,231 C17.2370371,231 0,213.762963 0,192.5 C0,171.237037 17.2370371,154 38.5,154 L41.5,154 Z" id="Shape" fill="url(#linearGradient-1)"></path>
                    </g>
                    <g id="Group-2" transform="translate(422.206800, 211.706800)">
                        <circle id="Oval" fill="#120136" transform="translate(190.918831, 190.918831) rotate(-315.000000) translate(-190.918831, -190.918831) " cx="190.918831" cy="190.918831" r="135"></circle>
                        <path d="M292.388654,254.204888 L311.480537,273.296771 C321.829431,283.645665 321.829431,300.424537 311.480537,310.77343 L310.77343,311.480537 C300.424537,321.829431 283.645665,321.829431 273.296771,311.480537 L254.204888,292.388654 C243.855994,282.03976 243.855994,265.260888 254.204888,254.911995 L254.911995,254.204888 C265.260888,243.855994 282.03976,243.855994 292.388654,254.204888 Z M149.199531,149.199531 C172.240464,126.158598 209.597198,126.158598 232.638131,149.199531 C255.679064,172.240464 255.679064,209.597198 232.638131,232.638131 C209.597198,255.679064 172.240464,255.679064 149.199531,232.638131 C126.158598,209.597198 126.158598,172.240464 149.199531,149.199531 Z" id="Combined-Shape" fill="url(#linearGradient-2)"></path>
                    </g>
                </g>
            </g>
        </g>
    </g>
</svg>